<svg width="32" height="32" viewBox="0 0 32 32" fill="none" xmlns="http://www.w3.org/2000/svg">
<g clip-path="url(#clip0_4342_63220)">
<path d="M0 9.66C0 6.24306 0 4.53458 0.675519 3.23415C1.24477 2.13829 2.13829 1.24477 3.23415 0.675519C4.53458 0 6.24306 0 9.66 0H22.34C25.7569 0 27.4654 0 28.7658 0.675519C29.8617 1.24477 30.7552 2.13829 31.3245 3.23415C32 4.53458 32 6.24306 32 9.66V22.34C32 25.7569 32 27.4654 31.3245 28.7658C30.7552 29.8617 29.8617 30.7552 28.7658 31.3245C27.4654 32 25.7569 32 22.34 32H9.66C6.24306 32 4.53458 32 3.23415 31.3245C2.13829 30.7552 1.24477 29.8617 0.675519 28.7658C0 27.4654 0 25.7569 0 22.34V9.66Z" fill="#ffffff"/>
<path d="M15 17H16V14H15C13.92 14 13 13.08 13 12V7H25V10H16V14H24V17H16V25H13V19C13 17.92 13.92 17 15 17Z" fill="#000000"/>
<path d="M10 7H7V25H10V7Z" fill="#000000"/>
</g>
<defs>
<clipPath id="clip0_4342_63220">
<rect width="32" height="32" fill="#000000"/>
</clipPath>
</defs>
</svg>
